<?xml version="1.0" encoding="utf-8"?>
<!-- Generator: Adobe Illustrator 23.0.3, SVG Export Plug-In . SVG Version: 6.00 Build 0)  -->
<svg version="1.1" id="Layer_1" xmlns="http://www.w3.org/2000/svg" xmlns:xlink="http://www.w3.org/1999/xlink" x="0px" y="0px"
	 viewBox="0 0 512 512" style="enable-background:new 0 0 512 512;" xml:space="preserve">
<style type="text/css">
	.st0{fill:#000;}
</style>
<g>
	<path class="st0" d="M286.99,434.43c4.29-1.14,7.27,0.75,10.32,2.47c1.76,0.99,3.49,1.27,5.37-1.17c-0.88-0.6-1.59-1.15-2.36-1.61
		c-4.09-2.45-8.93-2.59-13.26-4.87c-6.55-3.45-8.73-4.18-12.11-9.65c0-3.19-0.17-6.58,0.1-9.93c0.09-1.14,1.29-2.19,1.99-3.29
		c-0.56,0.33-1.12,0.66-1.68,0.99c-0.36-1.35-0.72-2.69-1.19-4.47c-4.54,8.28-1.6,16.25-2.89,24.22c-1.78,1.06-3.8,2.26-4.72,2.81
		c-3.3-0.52-5.64-0.88-8.11-1.27c-0.87-0.87-1.87-1.87-2.87-2.87c-4.14-0.5-8.02-0.28-11.54,2.57c-1.55,1.25-3.84,1.57-5.76,2.38
		c-4.27,1.78-8.52,3.6-12.61,5.33c2.29,2.55,4.17,4.63,5.98,6.65c5.38-0.45,10.74,1.06,15.48-2.24c5.28,2.45,8.29,6.56,10.9,11.14
		c0.41,0.72,1.54,1.03,2.34,1.53c2.73-3.28-0.77-5.36-0.81-7.15c1.05-2.04,1.77-3.44,2.51-4.87c1.28,0,2.61,0,4.23,0
		c-0.42,4.64,4.26,4.29,6.18,6.69c0.25,0.31,0.31,0.77,0.49,1.26c-1.66,0.27-3.22,0.53-4.88,0.8c0.16,1.11,0.27,1.87,0.43,2.96
		c2.67-0.75,5.14-1.44,7.33-2.05C281.9,446.94,283.26,440.13,286.99,434.43z"/>
	<path class="st0" d="M3,248.84c2.55,0,5.1,0,7.14,0c12.83,9.05,25.84,17.35,34.16,30.78c0.49-0.4,0.84-0.55,0.87-0.73
		c0.18-1.65,0.31-3.31,0.44-4.81c-1.38-1.85-2.65-3.54-4.1-5.48c1.19-0.57,1.88-0.89,2.6-1.23c2.08,1.63,1.71,5.62,6.07,5.21
		c0.2-1.36,0.43-2.88,0.66-4.43c1.57-1.57,3.17-3.17,4.78-4.77c-0.54-2.3-1.23-4.58-1.58-6.92c-0.34-2.3-0.37-4.67,2.59-5.46
		c0.89,1.36,2,3.06,3.37,5.15c0.53-1.51,0.88-2.5,1.44-4.09c1.82,0.67,3.63,1.34,5.44,2.01c0.34-0.89,0.83-1.55,0.67-1.84
		c-1.67-3-3.45-5.93-5.81-9.91c2.33,0.32,3.8,0.52,5.54,0.76c0.04-0.26,0.57-1.4,0.25-1.74c-1.99-2.12-2.01-3.88-0.51-6.56
		c2.16-3.85,3.45-8.18,5.52-13.34c-1.24-4.37,1.98-8.69,4.29-13.17c2.3-4.46,5.12-8.66,7.75-13.05c0.16-4.52-0.66-9.28,1.72-13.63
		c1.14-2.08,2.68-4.04,3.31-6.27c1.1-3.87,1.65-7.9,2.61-12.83c3.01-1.34,2.85-5.68,4.06-9.05c0.91-2.53,1.53-5.29,3.39-7.06
		c5.19-4.94,8.53-11.07,11.95-17.68c0-9.38,4.69-17.37,10.01-25.32c-0.37-0.54-0.94-1.37-1.96-2.88c2.8-2.22,5.49-4.35,8.47-6.72
		c0.79-2.32,1.73-5.05,2.69-7.86c2.52-0.8,4.96-1.57,8.87-2.81c-1.32,2.1-1.78,2.83-2.91,4.62c2-0.71,3.35-0.81,4.12-1.53
		c2.17-2.04,3.8-4.84,5.76-6.75c1.75-1.71,3.87-4,6.26-4.99c4.39-1.81,6.75-5.67,10.02-8.58c0.93-0.83,1.34-2.22,2.11-3.57
		c15.69-6.62,28.37-8.34,48.39-6.78c0.27,1.54,0.55,3.1,0.91,5.15c1.82-0.89,3.22-1.58,5.51-2.69c0.63,1.26,1.4,2.79,1.93,3.85
		c4.03,0,7.07,0,9.65,0c1.24,2,2.22,3.58,3.28,5.3c1.43-1.34,2.62-2.45,4.02-3.76c1.53,0.68,3.15,1.4,5.06,2.25
		c0.31-1.23,0.51-1.99,0.74-2.9c-6.01-2.19-11.9-4.34-18.4-6.71c-0.33-0.63-1.05-2.04-1.86-3.62c0.69-1.47,6.58-1.11,11.68,1.22
		c2.42-4.32,7.34-0.47,11.02-3.34c3.07-2.39,6.94,2.4,11.08,1.16c-0.16-3.91-3.63-5.02-5.06-7.47c4.63-0.61,4.63-0.61,7.08,3.99
		c2.52,0.87,5.25,1.81,8.42,2.91c-0.67,2.24-1.35,4.5-2.2,7.32c2.85,0.1,5.57,0.24,8.29,0.28c2.79,0.05,5.58,0.01,8.99,0.01
		c0.82-2.32,1.62-4.55,2.4-6.76c1.1,0,2.22,0,3.97,0c1.12-4.45,2.27-9,3.45-13.7c-0.43-1.77-0.97-3.81-1.4-5.87
		c-0.4-1.92-0.68-3.87-1.02-5.82c0.54-0.05,1.08-0.11,1.96-0.19c0.79,1.79,2.5,3.79,2.27,5.53c-0.49,3.68,1.92,5.54,3.4,7.04
		c1.05,5.29-5.17,8.05-2.35,13.5c1.9-1.35,3.6-2.55,5.08-3.61c2,0,3.91,0,6.81,0c-1.67,2.41-2.85,4.1-3.96,5.69
		c1.78,1.86,3.73,3.9,5.57,5.84c1.87,0,3.56,0,5.75,0c0.15-2.12,0.3-4.24,0.49-6.84c4.12,0.36,5.25,2.59,4.8,6.08
		c3.05,1.66,6.03,3.28,9.33,5.08c0.61-1.8,0.95-2.79,1.29-3.77c7.21-2.27,14.03,1.43,21.1,1.38c2.46,3.23,4.93,6.47,7.49,9.84
		c-0.05,0.91-0.11,1.99-0.16,2.93c-3.29,1.94-3.06-0.84-3.81-2.57c-1.24,0-2.58,0-4.39,0c1.32,2.01,2.5,3.82,4.05,6.17
		c2.39,0.69,5.42,1.57,8.28,2.4c1.34-2.09,2.46-3.84,3.7-5.78c6.89,1.63,12.77,4.92,18.04,8.65c5.06,3.57,9.68,7.82,14.9,11.3
		c1.95,1.3,3.08,3.33,3.83,6.04c1.01,3.66,3.95,6.79,6.54,10.9c3.61,1.34,7.19,5.23,12.74,4.27c1.85,2,3.77,4.06,5.96,6.43
		c-0.88,7.42,2.62,13.68,7.78,19.16c1.64,1.75,2.99,3.31,2.36,5.93c1.16,0.55,2.33,1.1,3.75,1.77c-0.78,1.73-1.51,3.36-2.32,5.17
		c2.62,0.8,2.5-2.1,4.27-2.57c1.95,1.12,3.89,2.24,6.03,3.47c-0.53,1.88-3.03,3.75-0.26,5.29c-0.53,1.75-1.03,3.44-1.89,6.3
		c-1.36,1.08-3.64,2.91-6.17,4.93c0,0.66,0,1.78,0,3.06c-0.97,0.34-1.96,0.69-3.11,1.1c1.36,3.65,5.03,4.48,7.79,6.24
		c3.09,1.97,7.16,2.79,9.59,5.29c2.83,2.91,7.81-0.54,9.32,4.21c-3.06,2.49-5.81-0.3-8.77-0.89c-2.89-0.57-6.16,0.99-8.87-1.47
		c-1.31,0.76-2.82,1.64-4.53,2.64c0.51,0.88,0.75,1.9,1.31,2.13c4.11,1.69,8.29,3.22,12.88,4.97c3.58-1.16,7.73-2.51,12.4-4.02
		c-1.02-1.6-1.59-2.49-2.51-3.93c3.29-0.19,6.43-0.37,9.72-0.55c0.34-0.93,0.7-1.91,1.12-3.05c1.28,0,2.61,0,4.18,0
		c0.12,0.89,0.59,1.89,0.27,2.42c-2.29,3.79-1.45,7.98-1.68,12c-1.98,0.95-3.87,1.85-6.1,2.91c-2.77,5.11-5.79,10.67-9.1,16.76
		c0.43,2.92,3.03,3.38,6.16,3.25c0.34,0.95,0.69,1.93,1.04,2.91c2.48,1.36,6.52-0.76,12.4-7.22c-2.61,1.12-3.65,1.71-4.76,2
		c-1.28,0.34-2.64,0.42-3.77,0.59c-1.02-1.02-1.82-1.82-2.8-2.8c2.02-0.82,3.94-1.64,5.9-2.35c0.5-0.18,1.12-0.03,2.32-0.03
		c2.48-3.1,5.2-6.5,7.88-9.85c1.59,5.91,1.57,6.32-0.77,11.3c0.82,1.65,1.73,3.48,2.78,5.59c3.18-3.58,6.22-7,9.84-11.08
		c1.1,3.14,2.08,5.94,3,8.57c-1.31,2.41-2.45,4.49-3.58,6.57c-1.13,2.08-2.07,4.3-3.45,6.2c-1.39,1.92-3.22,3.52-5.53,5.98
		c-0.85-2.06-1.31-3.17-2.07-5.02c-2.14,2.96-4.04,5.58-7.2,9.93c4.64-2.02,7.42-3.24,10.52-4.59c0.55,1.18,1.07,2.3,1.83,3.93
		c1.05-1.48,1.99-2.81,3.92-5.52c0.18,3.67,0.27,5.55,0.35,7.26c-1.75,1.44-3.37,2.78-4.93,4.06c-0.08-0.38-0.24-1.16-0.52-2.53
		c-1.08-0.07-2.4-0.15-3.65-0.23c-1.29,1.76-2.24,3.86-3.86,5.02c-1.34,0.96-3.47,0.83-5.45,1.23c0,3.17,0,5.62,0,7.1
		c2.48,2.46,4.64,4.59,7.1,7.02c4.32-3.01,7.3-9.03,14.52-10.25c-2.56,6.65-7.87,11.3-10.16,17.66c0.53,0.64,1.06,1.26,1.69,2.02
		c-1.07,1.12-2.19,2.29-2.98,3.12c0,6.78,0,13.21,0,20.51c5.68-6.46,6.83-15.14,14.16-19.38c-2.48,6.96-3.15,14.56-8.41,20.37
		c-1.2,1.33-1.58,3.37-2.72,4.78c-2.02,2.51-3.92,5.65-6.63,6.93c-3.58,1.7-6.37,4.02-9.16,6.62c-1.55,1.44-3.5,2.44-5.35,3.7
		c-0.57-0.5-1.15-1.02-2.2-1.94c0.26,4.49-3.31,5.97-6.06,6.63c-11.68,2.81-23.37,4.48-34.45-2.81
		c-5.43-3.57-12.78-10.96-16.05-17.11c-1.3-2.46-1.51-5.91-5.35-6.86c-8.4,10.51-16.46,21.48-25.97,31.25
		c-0.92,3.47-2.04,7.09-5.14,9.56c-3.45,2.75-3.08,7.23-5.17,10.67c-1.83,3.02-1.86,7.13-2.84,11.45
		c-5.12-0.66-10.37,1.25-15.88-1.38c-2.63-1.26-6.55-1.04-9.2,1.56c-1.97-1.25-3.76-2.39-5.58-3.5c-0.14-0.08-0.48,0.16-1.44,0.51
		c0.62,1.59,1.23,3.16,1.66,4.25c-2.82,2.82-5.48,5.48-8.14,8.14c-0.22-0.22-0.82-0.82-1.26-1.26c0.46-2.6,0.91-5.09,1.3-7.27
		c-3.7-3.1-7.84-3.54-11.33-2.46c-3.47,1.06-6.81,1.59-9.95,1.4c-1.19,1.95-2.15,3.54-3.37,5.54c-4.93-3.14-10.23-1.73-16.1-2.19
		c-3.31-4-6.97-8.43-10.76-13c1.68-5.91,3.34-11.73,5.2-18.25c-1.44-1.63-3.4-3.84-5.82-6.58c3.85-1.86,7.19-0.76,10.21-1.21
		c0.92,0.92,1.72,1.72,2.52,2.52c-0.61,0.83-1.22,1.65-1.75,2.38c4.71,8.18,11.28,13.76,19.59,17.38c0.37-0.54,0.67-0.97,0.96-1.41
		c-0.11-0.52-0.05-1.18-0.35-1.54c-0.92-1.07-1.97-2.03-3.16-3.22c1.06-0.36,2-0.69,2.95-1.01c-2.94-15.02,0.3-12.93-10.83-25.27
		c1.25,0.58,2.45,1.42,3.77,1.7c3.95,0.85,7.94,1.48,12.85,2.36c5.95,3.5,8.78,4.31,18.51,4.92c2.15,5.84,7.02,9.1,12.62,11.35
		c0.91,0.37,2.42-0.74,4.38-1.41c1.35,2.22,2.97,4.89,4.22,6.96c1.84-1.84,4.33-4.33,7.77-7.77c0.4-3.02-1.02-7.12-2.53-11.62
		c-2.54-7.55-4.78-15.65-0.92-23.75c2.73-5.73,1.46-11.86,1.77-17.73c-3.59-2.97-8.98-2.66-10.65-7.31
		c-2.24-0.12-4.15-0.22-6.21-0.33c0-1.93,0-3.57,0-5.42c-2.35-1.93-4.7-3.85-7.69-6.31c-3.04-0.04-2.03,4.77-4.27,6
		c-7.23,2.62-13.92,5.94-21.67,3.83c-0.31,1.29-0.5,2.05-0.84,3.46c-2.65,0.14-5.64,0.29-8.8,0.46c-6.13,5.43-13.51,5.86-21.27,4.35
		c-9.8-1.92-19.28-5.9-30.24-4.16c-12.18,6.08-13.08,17.9-12.54,30.38c-5.74-2.49-5.74-2.49-6.85-7.88
		c-4.21-3.73-7.57-9.03-13.67-10.95c-2.8,1.1-3.73,3.16-3.33,5.39c-2.8,2.8-5.34,5.35-9.15,9.17c1.27-2.71,1.8-4,2.45-5.21
		c2.12-3.95,4.29-7.87,6.8-12.46c-0.53-6.09-1.36-12.89-1.65-19.72c-0.3-7-0.07-14.02-0.07-22.1c-4.69,1.73-8.56,3.15-13.52,4.98
		c-2.73,2.22-0.08,8.21-4.92,11.35c-0.62-7.8-1.05-15.13,3.34-21.64c3.1-4.59,3.28-10.04,4.64-15.05c1.16-4.26,0.97-9.24-2.53-13.26
		c-1.31-1.51-1.78-3.76-2.49-5.37c-2.09-1.57-3.82-3.75-5.98-4.32c-6.53-1.71-13.09-3.32-19.94-0.48
		c-11.87,4.91-19.46,9.84-25.44,22.08c-3.04,6.23-5.3,12.59-6.38,19.49c-0.6,3.82-2.45,7.45-3.81,11.14
		c-0.81,2.21-1.76,4.37-2.55,6.32c-4.27,1.04-8.13,1.97-12.03,2.91c0.68,1.26,1.26,2.35,1.87,3.49c-7.23,2.56-7.61,3.02-9,10.81
		c-5.3,0.81-10.63,1.62-15.67,2.39c-2.25-2-4.29-3.81-6.64-5.89c-2.18,2.68-1.11,5.27-1.29,7.58c-0.2,2.53-0.04,5.08-0.04,7.57
		c2.58,2.47,5,4.95,5.13,9.79c-2.01-0.83-3.35-1.39-4.02-1.67c-4.45,0.57-8.42,1.07-11.44,1.46c-3.39-4.42-6.12-7.99-9.07-11.83
		c-3.04-1.65-4.76,0.85-6.77,2.96c-1.57,0-3.23,0-5.57,0c-0.57-0.96-1.45-2.42-1.94-3.23c-2.79,0-4.48,0-6.4,0
		c-0.32-0.93-0.66-1.9-1.1-3.15c-1.79,0-3.69,0-6.17,0c-3.8,4.24-7.97,8.91-12.11,13.54c-5.64-4.97-5.34-13.99-14.02-18.2
		c2.06,4.25,3.46,7.16,5.06,10.46c-0.9,1.57-2.04,3.55-2.93,5.1c-1.31-1.33-2.58-2.62-3.85-3.91c-0.21,0.26-0.42,0.52-0.63,0.78
		c-0.92-3.29-1.85-6.58-2.68-9.53c-1.32-0.27-2.1-0.43-2.73-0.55c0-5.01-0.06-9.74,0.07-14.47c0.02-0.63,0.93-1.24,1.55-2
		c-3.39-5-4.53-11.1-8.76-15.5C3,249.97,3,249.4,3,248.84z M318.75,84.25c-4.6,2.77-9.51,0.64-14.04,1.45
		c-4.88,0.87-9.29-3.85-14.26-1.13c-0.2,0.83-0.38,1.6-0.57,2.45c-1.57,0.26-3.13,0.51-5.26,0.86c0.7,1.35,1.26,2.21,1.61,3.15
		c0.33,0.87,0.45,1.83,0.57,2.34c-4.98,1.08-9.33,2.02-14.57,3.15c1.71,2.14,2.81,3.51,3.71,4.65c5.04-1.34,6.77-2.24,9.93-4.84
		c5.45-0.52,10.3-0.98,15.78-1.5c2.36,2.26,6.16,0.94,9.62,0.95c3.96,0.02,7.56,0.49,10.51,3.55c1.68-2.98,4.46-1.39,8.15-1.9
		c1.12,1.12,2.8,2.8,4.39,4.39c1.27-1.54,5.33-0.89,5.26-3.7c-2.15-4.14-3.83-7.39-5.19-10.02
		C328.88,86.75,324.02,85.55,318.75,84.25z"/>
	<path class="st0" d="M45.88,431.42c-0.35,0.24-0.71,0.48-1.06,0.71c1.46,2.99,2.92,5.98,4.87,9.96c1.75-5.76-0.25-9.39-1.65-13.53
		c-1.27-3.75-4.76-5.59-5.71-9.41c0.79-0.16,1.56-0.32,2.97-0.61c0-5.32-4.03-11.27,1.1-16.47c2.14,0.5,4.58,1.07,7.14,1.67
		c0.38-2.21,0.65-3.77,0.97-5.66c1.35,2.11,2.44,3.81,3.86,6.03c1.15-3.02,0.13-6.51,4.95-7.66c2.41,1.3,5.64,3.03,8.93,4.8
		c0.14-0.41,0.49-1.4,0.91-2.6c1.56,0.77,3.1,1.52,5.03,2.47c-0.7,1.2-1.36,2.33-1.97,3.39c0.7,2.8,1.41,5.64,2.28,9.14
		c1.1,0.72,2.83,1.83,5.04,3.27c-2.19,1.62-3.99,2.96-6.13,4.55c2.27,1.45,4.3,2.74,6.18,3.93c1.05,2.49,2.02,4.8,3.43,8.15
		c1.08-4.95,3.87-8.37,2.53-12.18c-1.3-3.68-3.19-7.25-5.4-10.47c-1.5-2.17-1.6-3.75,0.09-6.52c3.09,4.18,5.92,7.78,5.43,12.85
		c1,3.46,6.53,4.25,4.87,9.16c8.02,5.65,9.88,14.82,13.3,24.33c1.2-1.65,1.9-2.3,2.22-3.11c0.55-1.43,0.86-2.94,1.28-4.46
		c-0.91-6.49-1.83-13.12-2.82-20.18c2.93-0.08,3.01-3.4,4.96-4.98c0-6.77,0-13.56,0-20.33c1.53-1.9,3.58-3.16,3.66-6.26
		c0.05-1.72,2.56-3.37,4.05-5.15c8.58,0.93,12.11,8.46,17.08,12.28c2.86,9.79,6.9,17.79,13.86,24.08c0.87,3.11,1.73,6.16,2.68,9.56
		c2.91,1.91,5.01,5.17,8.44,7.33c2.71,1.71,3.81,5.97,5.33,9.29c2.31,3.12,7.52,3.45,8.01,8.45c2.73,0.94,5.46,1.88,8.22,2.83
		c-0.75,1.29-1.38,2.37-2.66,4.59c2.48-0.46,3.81-0.7,5.08-0.93c3.16,3.51,6.59,7.31,9.97,11.06c1.28-0.72,2.36-1.32,4.21-2.36
		c0.28,2.79,0.5,4.87,0.7,6.92c1.43,0.73,2.84,1.44,4.6,2.34c4.08-2.09,8.66-2.88,13.94,0.06c0.82-2.32,1.61-4.53,2.56-7.22
		c1.39,0.85,2.71,1.66,4.02,2.46c-0.71,1.3-1.31,2.38-2.33,4.24c0.17-0.07-0.59,0.09-1.21,0.49c-6.69,4.28-14.27,3.95-21.51,3.12
		c-3.62-0.41-7.49-3.01-10.25-5.67c-5.36-5.16-12.32-8.05-17.54-13.5c-2.29-2.39-4.16-5.25-6.85-7.37
		c-2.65-2.09-4.76-4.84-7.29-7.11c-2.81-2.53-5.82-4.83-8.3-6.87c-7.5,2.8-14.36,5.36-21.42,7.99c3.46,9.98,6.72,20.5,10.84,30.67
		 M43.29,409.26 M3,340.62c0.75-0.91,1.5-1.82,2.52-3.06c0.49,0.33,1.25,0.85,2.27,1.54c0.97-0.48,2.06-1.03,3.16-1.58
		c1,1,2,2.01,3.2,3.2c0.99-2.18,1.95-4.28,3.03-6.66c2.8,0,5.84,0,9.95,0c0.36,0.63,1.16,2.02,2.83,4.94c0-3.42,0-4.75,0-5.77
		c2.58-1.69,4.8-3.14,7.05-4.61c2.38,1.23,4.71,2.43,6.97,3.59c0.96-0.58,1.79-1.09,3.45-2.1c-0.82,4.05,1.35,7.72-2.02,10.07
		c1.8,4.24,3.33,7.85,4.55,10.75c-0.6,3.06-1.11,5.62-1.74,8.83c-1.36-1.88-2.46-3.41-4.42-6.11c0-1.87,0-5.48,0-9.73
		c-2.29-0.81-4.52-1.6-7.13-2.53c0.61-1.17,1.2-2.3,1.72-3.31c-0.67-1.29-1.4-2.69-2.37-4.56c-1.31,0.77-2.63,1.55-4.19,2.47
		c0.63,0.79,1.07,1.35,1.88,2.36c-0.29,0.62-0.74,1.51-1.1,2.42c-0.94,2.35-1.63,4.86,0.43,6.86c4.22,4.11,4.32,9.15,3.82,14.66
		c-0.77,0.18-1.54,0.36-2.95,0.69c-0.1,1.77-0.22,3.85-0.36,6.25c1.68,0,3.01,0,4.74,0c0.22-1.28,0.49-2.84,0.93-5.38
		c2.33,3.42,6.21,4.21,7.15,6.94c-0.42,3.88-0.76,6.95-1.04,9.58c1.49,1.49,2.49,2.49,3.63,3.63c-0.62,2.74,1.33,6.07-1.71,8.44
		c0.53,0.59,1.06,1.18,0.78,0.87c-0.6,1.48-1.15,2.83-1.69,4.18c-0.51-0.16-1.02-0.31-1.53-0.47c-1.2-3.55-2.39-7.1-3.82-11.32
		c-2.13,2.23-4.39,3.82-5.55,6c-1.33,2.5-1.67,5.52-2.56,8.75c-2.07-2.9-3.91-5.49-6.03-8.46c0-2.3,0-5.12,0-7.92
		c-1.18-1.24-2.33-2.45-3.5-3.68c0-1.14,0-2.26,0-3.57c-0.77-0.22-1.53-0.43-3.11-0.88c1.01,3.04,1.84,5.5,2.82,8.43
		c-0.57,0.15-1.48,0.39-3.15,0.84c0.6,2.68,1.9,5.49,1.64,8.13 M40.39,384.64c0-2.37,0-4.07,0-5.71c-1.59-1.04-3.91-1.73-4.52-3.15
		c-0.83-1.93-1.92-2.86-3.73-3.43c-1.05-5.61,1.26-11.64-1.67-16.36c0.71-2.27,1.26-4.02,2-6.4c-2.7-1.17-5.04-2.18-7.37-3.19
		c-0.86-4.9-3.11-7.67-6.78-7.35c0.42,1.48,0.8,2.82,1.25,4.36c-2.07,1.9-1.61,4.53-0.62,7.17c0.83,2.2,1.95,4.3,2.71,6.52
		c0.57,1.65,0.77,3.42,1.18,5.32c-0.78,0.78-1.78,1.78-2.78,2.78c0.53,0.6,1.07,1.2,1.93,2.17c-1.24,0.17-2.21,0.31-3.44,0.48
		c-0.16-1.76-0.27-3.1-0.51-5.81c-1.07-0.97-2.92-2.65-4.69-4.25c-0.8-4.49-1.61-8.99-2.44-13.63c-1.3,0-2.63,0-3.94,0
		c-0.6,3.54-1.18,6.93-1.93,11.3c1.63,2.21,3.87,5.25,6.73,9.14c-0.46,2.45-1.1,5.86-1.76,9.37c0.66,0.66,1.46,1.46,2.07,2.07
		c1.52,0,2.86,0,4.14,0c0.35-1.81,0.64-3.35,1.04-5.44c1.55,0.88,2.65,1.5,3.87,2.19c0.34-0.95,0.7-1.93,1.21-3.35
		c4.44,3.01,8.78,5.96,13.16,8.93c0,2.28,0,4.19,0,6.26C37.13,384.64,38.46,384.64,40.39,384.64z"/>
	<path class="st0" d="M286.99,434.43c-3.73,5.7-5.09,12.51-11.17,16.33c-2.18,0.61-4.66,1.3-7.33,2.05
		c-0.16-1.08-0.27-1.85-0.43-2.96c1.67-0.27,3.22-0.53,4.88-0.8c-0.19-0.49-0.25-0.95-0.49-1.26c-1.91-2.4-6.59-2.05-6.18-6.69
		c-1.62,0-2.96,0-4.23,0c-0.74,1.43-1.46,2.84-2.51,4.87c0.04,1.79,3.54,3.87,0.81,7.15c-0.8-0.5-1.93-0.81-2.34-1.53
		c-2.6-4.58-5.61-8.69-10.9-11.14c-4.74,3.3-10.1,1.8-15.48,2.24c-1.81-2.02-3.69-4.1-5.98-6.65c4.1-1.74,8.35-3.55,12.61-5.33
		c1.93-0.8,4.21-1.12,5.76-2.38c3.52-2.85,7.4-3.06,11.54-2.57c1,1,2,2,2.87,2.87c2.48,0.39,4.81,0.75,8.11,1.27
		c0.92-0.55,2.94-1.75,4.72-2.81c1.29-7.97-1.65-15.94,2.89-24.22c0.47,1.78,0.83,3.13,1.19,4.47c0.56-0.33,1.12-0.66,1.68-0.99
		c-0.69,1.09-1.9,2.15-1.99,3.29c-0.27,3.35-0.1,6.74-0.1,9.93c3.39,5.47,5.56,6.2,12.11,9.65c4.33,2.28,9.17,2.43,13.26,4.87
		c0.77,0.46,1.48,1.01,2.36,1.61c-1.88,2.44-3.61,2.16-5.37,1.17C294.26,435.18,291.28,433.29,286.99,434.43z"/>
	<path class="st0" d="M40.39,384.64c-1.93,0-3.27,0-4.9,0c0-2.07,0-3.97,0-6.26c-4.37-2.97-8.72-5.92-13.16-8.93
		c-0.51,1.42-0.86,2.4-1.21,3.35c-1.22-0.69-2.31-1.31-3.87-2.19c-0.4,2.09-0.7,3.63-1.04,5.44c-1.28,0-2.62,0-4.14,0
		c-0.61-0.61-1.41-1.41-2.07-2.07c0.66-3.51,1.3-6.93,1.76-9.37c-2.86-3.88-5.1-6.92-6.73-9.14c0.75-4.37,1.32-7.76,1.93-11.3
		c1.31,0,2.64,0,3.94,0c0.83,4.64,1.63,9.13,2.44,13.63c1.77,1.6,3.62,3.28,4.69,4.25c0.24,2.71,0.36,4.05,0.51,5.81
		c1.23-0.17,2.2-0.31,3.44-0.48c-0.86-0.97-1.39-1.57-1.93-2.17c1-1,2-2,2.78-2.78c-0.4-1.89-0.61-3.67-1.18-5.32
		c-0.76-2.22-1.88-4.32-2.71-6.52c-0.99-2.63-1.45-5.27,0.62-7.17c-0.44-1.55-0.82-2.89-1.25-4.36c3.67-0.32,5.91,2.44,6.78,7.35
		c2.33,1.01,4.67,2.02,7.37,3.19c-0.74,2.37-1.29,4.13-2,6.4c2.94,4.72,0.63,10.74,1.67,16.36c1.81,0.57,2.9,1.5,3.73,3.43
		c0.61,1.42,2.92,2.11,4.52,3.15C40.39,380.57,40.39,382.27,40.39,384.64z"/>
</g>
</svg>
