<svg id="Layer_1" data-name="Layer 1" xmlns="http://www.w3.org/2000/svg" viewBox="0 0 31.96 31.53"><defs><style>.cls-1{fill:#000000;}</style></defs><title>brand</title><path class="cls-1" d="M16.89,28a.94.94,0,0,1,.71.17.25.25,0,0,0,.37-.08L17.81,28c-.28-.16-.61-.17-.91-.33s-.6-.29-.83-.66c0-.22,0-.46,0-.69,0-.07.09-.15.14-.22l-.12.07L16,25.87c-.31.57-.11,1.11-.2,1.66l-.32.19-.56-.08-.19-.2a1,1,0,0,0-.8.18,2,2,0,0,1-.39.16l-.87.37.41.45c.37,0,.74.08,1.07-.15a1.65,1.65,0,0,1,.74.76c0,.05.11.07.16.11.19-.23-.05-.37-.05-.49l.17-.34h.29c0,.32.29.3.43.46a.46.46,0,0,1,0,.09l-.34.05,0,.21.51-.14C16.54,28.89,16.64,28.43,16.89,28Z" transform="translate(-0.04 0)"/><path class="cls-1" d="M.23,17.4s.06,0,.06,0l0-.33L0,16.65l.18-.09c.14.12.11.39.41.36l.05-.3L1,16.29a4.15,4.15,0,0,1-.11-.48c0-.15,0-.32.18-.37l.23.35.1-.28.37.14c0-.06.06-.11.05-.13l-.4-.68.38.06s0-.1,0-.12a.34.34,0,0,1,0-.45,8.29,8.29,0,0,0,.38-.92c-.09-.3.13-.6.29-.9s.35-.6.53-.9a2.16,2.16,0,0,1,.12-.94,1.78,1.78,0,0,0,.23-.43c.08-.26.11-.54.18-.88.21-.09.19-.39.28-.62A1.13,1.13,0,0,1,4,8.26,4.15,4.15,0,0,0,4.85,7,3.17,3.17,0,0,1,5.54,5.3L5.4,5.11,6,4.65l.19-.54.61-.2-.2.32c.14-.05.23-.06.28-.11s.26-.33.4-.46a1.44,1.44,0,0,1,.43-.34,2.59,2.59,0,0,0,.68-.59.76.76,0,0,0,.15-.25A6.4,6.4,0,0,1,11.84,2l.06.35.38-.18.14.26h.66l.22.36.28-.25.35.15.05-.2-1.27-.46-.12-.25c0-.1.45-.07.8.09.16-.3.5,0,.75-.23s.48.16.77.08c0-.27-.25-.35-.35-.52.32,0,.32,0,.48.28l.58.2-.15.5.57,0h.62l.16-.46h.27l.24-.94c0-.13-.07-.27-.09-.41s0-.26-.07-.4h.13c.05.12.17.26.16.38a.53.53,0,0,0,.23.48c.07.37-.36.56-.16.93l.35-.25h.46l-.27.39.38.4h.4l0-.47c.29,0,.36.18.33.42l.64.35.09-.26c.5-.15,1,.1,1.45.1l.52.67,0,.2c-.22.14-.21,0-.26-.17h-.3l.28.42.57.17.25-.4A3.65,3.65,0,0,1,23.67,4c.35.25.66.54,1,.78a.71.71,0,0,1,.27.41,3.54,3.54,0,0,0,.44.75c.25.09.5.36.88.29l.41.45a1.62,1.62,0,0,0,.53,1.31c.12.12.21.23.16.41l.26.12-.16.36c.18.05.17-.15.3-.18l.41.24c0,.13-.21.25,0,.36L28,9.68l-.42.34v.21l-.22.08c.1.25.35.3.54.43a3.48,3.48,0,0,1,.66.36c.19.2.53,0,.64.29-.21.17-.4,0-.6-.06s-.43.06-.61-.1l-.31.18c0,.06.05.13.09.14.28.12.56.22.88.34l.85-.27-.17-.27.67,0,.07-.21h.29c0,.06,0,.13,0,.17a1.65,1.65,0,0,0-.12.82l-.42.2-.62,1.15c0,.2.21.23.42.22l.07.2c.17.1.45,0,.86-.49a2.5,2.5,0,0,1-.33.14l-.26,0-.19-.2.4-.16h.16l.54-.68a.79.79,0,0,1-.05.78l.19.38.68-.76.2.59-.24.45a4.38,4.38,0,0,1-.24.43c-.1.13-.22.24-.38.41L31,14.44l-.5.69.73-.32.12.27.27-.38,0,.5-.33.28,0-.18H31a1.31,1.31,0,0,1-.27.34,1,1,0,0,1-.37.09v.48l.49.49c.29-.21.5-.62,1-.71-.17.46-.54.78-.69,1.22l.11.13-.2.22V19c.39-.45.47-1,1-1.33A3.71,3.71,0,0,1,31.42,19c-.08.1-.11.24-.18.33a1.63,1.63,0,0,1-.46.48,2.58,2.58,0,0,0-.63.45,2.68,2.68,0,0,1-.37.26l-.15-.14c0,.31-.22.41-.41.46a2.85,2.85,0,0,1-2.37-.19,3.89,3.89,0,0,1-1.1-1.18c-.09-.17-.1-.41-.37-.47a27.65,27.65,0,0,1-1.78,2.14,1.16,1.16,0,0,1-.35.66c-.24.19-.22.5-.36.73a2.77,2.77,0,0,0-.19.79c-.36-.05-.72.09-1.09-.09a.58.58,0,0,0-.64.1l-.38-.24-.1,0,.12.29-.56.56L20,23.91l.09-.5a.83.83,0,0,0-.78-.17,1.87,1.87,0,0,1-.68.1l-.23.38c-.34-.22-.71-.12-1.11-.15l-.74-.89.36-1.26-.4-.45a1.78,1.78,0,0,1,.7-.08l.17.17-.12.16a2.8,2.8,0,0,0,1.35,1.2l.06-.1s0-.08,0-.1a2.28,2.28,0,0,0-.22-.23l.21-.07c-.21-1,0-.88-.75-1.73a1.51,1.51,0,0,0,.26.12l.88.16a2.34,2.34,0,0,0,1.27.34,1.43,1.43,0,0,0,.87.78c.06,0,.17-.05.3-.1l.29.48.53-.54a2,2,0,0,0-.17-.79A2.09,2.09,0,0,1,22,19a3,3,0,0,0,.12-1.22c-.25-.21-.62-.18-.73-.5l-.43,0v-.37l-.53-.43c-.2,0-.14.33-.29.41a2.37,2.37,0,0,1-1.49.26l-.05.24-.61,0a1.63,1.63,0,0,1-1.46.3,5.92,5.92,0,0,0-2.08-.29c-.83.42-.89,1.23-.86,2.09-.39-.17-.39-.17-.47-.54-.29-.26-.52-.62-.94-.75a.31.31,0,0,0-.22.37l-.63.63a2.55,2.55,0,0,1,.17-.36L12,18c0-.41-.09-.88-.11-1.35s0-1,0-1.52l-.93.34c-.19.16,0,.57-.34.78a2.2,2.2,0,0,1,.23-1.48,3.48,3.48,0,0,0,.32-1,1,1,0,0,0-.18-.91,1.31,1.31,0,0,1-.17-.36c-.14-.11-.26-.26-.41-.3a2,2,0,0,0-1.37,0,2.85,2.85,0,0,0-1.74,1.51A4.58,4.58,0,0,0,6.84,15a4.66,4.66,0,0,1-.26.77c-.06.15-.12.3-.18.43l-.82.2.12.24c-.49.17-.52.21-.61.74L4,17.51l-.46-.4c-.15.18-.07.36-.08.52a4.51,4.51,0,0,0,0,.52.89.89,0,0,1,.36.67l-.28-.11-.79.1L2.13,18c-.21-.12-.33.05-.46.2H1.28L1.15,18H.71l-.07-.22H.21M19.07,4c-.31.19-.65,0-1,.1s-.64-.26-1-.08l0,.17-.36.06a1.12,1.12,0,0,1,.11.22c0,.06,0,.12,0,.16l-1,.21.25.32a1.44,1.44,0,0,0,.69-.33l1.08-.1c.16.15.42.06.66.06a.92.92,0,0,1,.72.25c.12-.21.31-.1.56-.13l.3.3c.09-.11.37-.06.36-.26l-.35-.69Z" transform="translate(-0.04 0)"/><path class="cls-1" d="M.34,27.83l-.07.05.33.68a1.36,1.36,0,0,0-.11-.93C.4,27.37.16,27.25.09,27l.21,0c0-.36-.28-.77.07-1.13l.49.12.07-.39L1.2,26c.08-.2,0-.44.34-.52l.61.33.06-.18.35.17L2.42,26l.16.63.35.22-.43.31.43.27.23.56c.08-.34.27-.57.18-.83A3.27,3.27,0,0,0,3,26.42.35.35,0,0,1,3,26a1.26,1.26,0,0,1,.37.88c.07.24.45.3.34.63a3,3,0,0,1,.91,1.67,1.07,1.07,0,0,0,.15-.21,2.8,2.8,0,0,0,.09-.31l-.19-1.38c.2,0,.2-.24.34-.34v-1.4c.1-.13.24-.22.25-.43s.18-.23.28-.35c.59.06.83.58,1.17.84a3.48,3.48,0,0,0,1,1.65l.19.66c.2.13.34.35.58.5s.26.41.36.64.52.24.55.58l.57.2-.19.31.35-.06.69.76.29-.17,0,.48.32.16a1,1,0,0,1,1,0l.17-.49.28.17-.16.29s0,0-.08,0a2.19,2.19,0,0,1-1.48.22,1.37,1.37,0,0,1-.7-.39c-.37-.36-.85-.56-1.21-.93a4.43,4.43,0,0,0-.47-.51c-.18-.14-.32-.33-.5-.48s-.4-.34-.57-.48l-1.47.55c.24.69.46,1.41.75,2.11M.16,26.31m.21-2.64-.07.65.25.25c0,.19.09.42-.12.58l0,.06-.11.29-.11,0M.21,21l.23-.15c0,.28.1.53-.13.69l.31.74-.12.61-.3-.42v-.67" transform="translate(-0.04 0)"/><path class="cls-1" d="M16.89,28c-.25.4-.35.86-.76,1.13l-.51.14,0-.21.34-.05a.46.46,0,0,0,0-.09c-.14-.16-.46-.14-.43-.46h-.29l-.17.34c0,.12.24.26.05.49-.05,0-.13-.06-.16-.11a1.65,1.65,0,0,0-.74-.76c-.33.23-.7.12-1.07.15l-.41-.45.87-.37a2,2,0,0,0,.39-.16,1,1,0,0,1,.8-.18l.19.2.56.08.32-.19c.09-.55-.11-1.09.2-1.66l.08.31.12-.07c-.05.07-.13.15-.14.22,0,.23,0,.47,0,.69.23.37.38.42.83.66s.63.17.91.33l.16.11a.25.25,0,0,1-.37.08A.94.94,0,0,0,16.89,28Z" transform="translate(-0.04 0)"/></svg>
