<?xml version="1.0" encoding="utf-8"?>
<svg viewBox="693.5761 497.6145 475.453 396.1491" width="475.453" height="396.1491" xmlns="http://www.w3.org/2000/svg" xmlns:xlink="http://www.w3.org/1999/xlink">
  <defs>
    <linearGradient id="linearGradient3739" gradientUnits="userSpaceOnUse" gradientTransform="matrix(0.4226,-0.9063,0.9063,0.4226,4226.9761,-6584.5938)" x1="-7708.7969" y1="-803.36011" x2="-7633.1528" y2="-714.90741" xlink:href="#gradient-5"/>
    <linearGradient id="linearGradient3741" gradientUnits="userSpaceOnUse" gradientTransform="matrix(0.4226,-0.9063,0.9063,0.4226,4226.9761,-6584.5938)" x1="-8268.6387" y1="-813.12323" x2="-7728.9585" y2="-813.12323" xlink:href="#SVGID_2_"/>
    <linearGradient id="linearGradient3743" gradientUnits="userSpaceOnUse" gradientTransform="matrix(0.4226,-0.9063,0.9063,0.4226,4226.9761,-6584.5938)" x1="-8203.4922" y1="-758.99402" x2="-7881.895" y2="-758.99402" xlink:href="#SVGID_3_"/>
    <linearGradient id="linearGradient3745" gradientUnits="userSpaceOnUse" gradientTransform="matrix(0.4226,-0.9063,0.9063,0.4226,4226.9761,-6584.5938)" x1="-8238.3281" y1="-818.15222" x2="-7698.647" y2="-818.15222" xlink:href="#SVGID_4_"/>
    <linearGradient id="linearGradient3747" gradientUnits="userSpaceOnUse" gradientTransform="matrix(0.4226,-0.9063,0.9063,0.4226,4226.9761,-6584.5938)" x1="-8198.9678" y1="-810.85059" x2="-7915.3501" y2="-810.85059" xlink:href="#SVGID_5_"/>
    <linearGradient id="linearGradient3749" gradientUnits="userSpaceOnUse" gradientTransform="matrix(0.4226,-0.9063,0.9063,0.4226,4226.9761,-6584.5938)" x1="-8238.3281" y1="-762.29712" x2="-7698.647" y2="-762.29712" xlink:href="#SVGID_6_"/>
    <linearGradient id="linearGradient3751" gradientUnits="userSpaceOnUse" gradientTransform="matrix(0.4226,-0.9063,0.9063,0.4226,4226.9761,-6584.5938)" x1="-8271.8057" y1="-765.07068" x2="-7732.125" y2="-765.07068" xlink:href="#SVGID_7_"/>
    <linearGradient id="linearGradient3753" gradientUnits="userSpaceOnUse" gradientTransform="matrix(0.4226,-0.9063,0.9063,0.4226,4226.9761,-6584.5938)" x1="-8238.3281" y1="-745.68481" x2="-7698.647" y2="-745.68481" xlink:href="#SVGID_8_"/>
    <linearGradient id="linearGradient3755" gradientUnits="userSpaceOnUse" gradientTransform="matrix(0.4226,-0.9063,0.9063,0.4226,4226.9761,-6584.5938)" x1="-8238.3281" y1="-747.58557" x2="-7698.647" y2="-747.58557" xlink:href="#SVGID_9_"/>
    <linearGradient id="linearGradient3757" gradientUnits="userSpaceOnUse" gradientTransform="matrix(0.4226,-0.9063,0.9063,0.4226,4226.9761,-6584.5938)" x1="-7935.1431" y1="-747.9668" x2="-7815.856" y2="-747.9668" xlink:href="#SVGID_10_"/>
  </defs>
  <g id="g3203" transform="matrix(0.6511630415916443, 0, 0, 0.6511630415916443, 839.5107421875, 486.5298709869385)">
    <linearGradient id="gradient-5" gradientUnits="userSpaceOnUse" x1="-7708.7969" y1="-803.36011" x2="-7633.1528" y2="-714.90741" gradientTransform="matrix(0.4226,-0.9063,0.9063,0.4226,4226.9761,-6584.5938)">
      <stop offset="0" style="stop-color:#F69923" id="stop3206"/>
      <stop offset="0.3123" style="stop-color:#F79A23" id="stop3208"/>
      <stop offset="0.8383" style="stop-color:#E97826" id="stop3210"/>
    </linearGradient>
    <path style="fill:url(#linearGradient3739)" d="m 267.1,19.6 c -8.4,5 -22.4,19 -39,39.3 l 15.3,28.9 c 10.7,-15.4 21.7,-29.2 32.7,-41 0.8,-0.9 1.3,-1.4 1.3,-1.4 -0.4,0.5 -0.9,0.9 -1.3,1.4 -3.6,3.9 -14.4,16.5 -30.7,41.6 15.7,-0.8 39.8,-4 59.5,-7.4 5.9,-32.8 -5.7,-47.8 -5.7,-47.8 0,0 -14.8,-23.9 -32.1,-13.6 z" id="path3212"/>
    <path style="fill:none" d="m 241.1,184.4 c 0.1,0 0.2,0 0.3,-0.1 l -2.2,0.2 c -0.1,0.1 -0.3,0.1 -0.4,0.2 0.8,-0.1 1.6,-0.2 2.3,-0.3 z" id="path3214"/>
    <path style="fill:none" d="m 225.5,236.1 c -1.2,0.3 -2.5,0.5 -3.8,0.7 1.3,-0.2 2.6,-0.4 3.8,-0.7 z" id="path3216"/>
    <path style="fill:none" d="m 119.3,352.2 c 0.2,-0.4 0.3,-0.9 0.5,-1.3 3.4,-8.9 6.7,-17.5 10,-26 3.7,-9.4 7.4,-18.6 11,-27.5 3.8,-9.3 7.6,-18.4 11.3,-27.1 3.9,-9.2 7.7,-18 11.5,-26.5 3.1,-6.9 6.1,-13.6 9.1,-20.1 1,-2.2 2,-4.3 3,-6.4 2,-4.2 3.9,-8.3 5.8,-12.3 1.8,-3.7 3.5,-7.3 5.2,-10.9 0.6,-1.2 1.2,-2.4 1.7,-3.5 0.1,-0.2 0.2,-0.4 0.3,-0.6 l -1.9,0.2 -1.5,-2.9 c -0.1,0.3 -0.3,0.6 -0.4,0.9 -2.7,5.3 -5.4,10.7 -8,16.2 -1.5,3.1 -3,6.3 -4.6,9.5 -4.2,8.8 -8.3,17.6 -12.3,26.6 -4.1,9 -8.1,18.1 -12,27.1 -3.9,8.9 -7.6,17.8 -11.3,26.7 -3.7,8.9 -7.3,17.7 -10.8,26.5 -3.7,9.2 -7.3,18.3 -10.7,27.3 -0.8,2 -1.6,4.1 -2.3,6.1 -2.8,7.3 -5.5,14.4 -8.1,21.5 l 2.4,4.7 2.1,-0.2 c 0.1,-0.2 0.2,-0.4 0.2,-0.6 3.1,-9.5 6.5,-18.6 9.8,-27.4 z" id="path3218"/>
    <path style="fill:none" d="m 220.7,236.9 0,0 c 0,0 0,0 0,0 0,0 0,0 0,0 z" id="path3220"/>
    <path style="fill:#be202e" d="m 215.6,262.2 c -2,0.4 -4,0.7 -6,1 0,0 0,0 0,0 1,-0.1 2.1,-0.3 3.1,-0.5 1,-0.1 2,-0.3 2.9,-0.5 z" id="path3222"/>
    <path style="opacity:0.35;fill:#be202e" d="m 215.6,262.2 c -2,0.4 -4,0.7 -6,1 0,0 0,0 0,0 1,-0.1 2.1,-0.3 3.1,-0.5 1,-0.1 2,-0.3 2.9,-0.5 z" id="path3224"/>
    <path style="fill:#be202e" d="m 220.8,236.9 c 0,0 0,0 0,0 -0.1,0 -0.1,0 0,0 0.3,0 0.6,-0.1 0.9,-0.1 1.3,-0.2 2.6,-0.4 3.8,-0.7 -1.5,0.3 -3.1,0.5 -4.7,0.8 l 0,0 0,0 z" id="path3226"/>
    <path style="opacity:0.35;fill:#be202e" d="m 220.8,236.9 c 0,0 0,0 0,0 -0.1,0 -0.1,0 0,0 0.3,0 0.6,-0.1 0.9,-0.1 1.3,-0.2 2.6,-0.4 3.8,-0.7 -1.5,0.3 -3.1,0.5 -4.7,0.8 l 0,0 0,0 z" id="path3228"/>
    <linearGradient id="SVGID_2_" gradientUnits="userSpaceOnUse" x1="-8268.6387" y1="-813.12323" x2="-7728.9585" y2="-813.12323" gradientTransform="matrix(0.4226,-0.9063,0.9063,0.4226,4226.9761,-6584.5938)">
      <stop offset="0.3233" style="stop-color:#9E2064" id="stop3231"/>
      <stop offset="0.6302" style="stop-color:#C92037" id="stop3233"/>
      <stop offset="0.7514" style="stop-color:#CD2335" id="stop3235"/>
      <stop offset="1" style="stop-color:#E97826" id="stop3237"/>
    </linearGradient>
    <path style="fill:url(#linearGradient3741)" d="m 198.2,162.4 c 4.7,-8.7 9.4,-17.2 14.1,-25.5 4.9,-8.6 9.9,-16.9 15,-25 0.3,-0.5 0.6,-1 0.9,-1.4 5,-7.9 10,-15.5 15.1,-22.8 L 228,58.9 c -1.1,1.4 -2.3,2.8 -3.5,4.3 -4.4,5.5 -9,11.4 -13.7,17.7 -5.3,7.1 -10.7,14.6 -16.3,22.5 -5.1,7.3 -10.3,15 -15.5,22.9 -4.4,6.8 -8.8,13.7 -13.2,20.8 -0.2,0.3 -0.3,0.5 -0.5,0.8 l 19.9,39.3 c 4.4,-8.3 8.7,-16.6 13,-24.8 z" id="path3239"/>
    <linearGradient id="SVGID_3_" gradientUnits="userSpaceOnUse" x1="-8203.4922" y1="-758.99402" x2="-7881.895" y2="-758.99402" gradientTransform="matrix(0.4226,-0.9063,0.9063,0.4226,4226.9761,-6584.5938)">
      <stop offset="0" style="stop-color:#282662" id="stop3242"/>
      <stop offset="0.0955" style="stop-color:#662E8D" id="stop3244"/>
      <stop offset="0.7882" style="stop-color:#9F2064" id="stop3246"/>
      <stop offset="0.9487" style="stop-color:#CD2032" id="stop3248"/>
    </linearGradient>
    <path style="fill:url(#linearGradient3743)" d="m 107.5,384.1 c -2.6,7.2 -5.3,14.6 -7.9,22.2 0,0.1 -0.1,0.2 -0.1,0.3 -0.4,1.1 -0.8,2.1 -1.1,3.2 -1.8,5.1 -3.3,9.7 -6.9,20.1 5.9,2.7 10.6,9.7 15,17.7 -0.5,-8.3 -3.9,-16.1 -10.4,-22.1 28.9,1.3 53.9,-6 66.7,-27.2 1.1,-1.9 2.2,-3.9 3.2,-6 -5.9,7.4 -13.1,10.6 -26.8,9.8 0,0 -0.1,0 -0.1,0 0,0 0.1,0 0.1,0 20.1,-9 30.2,-17.7 39.1,-32 2.1,-3.4 4.2,-7.1 6.3,-11.2 -17.6,18.1 -38,23.2 -59.5,19.3 L 109,380 c -0.5,1.4 -1,2.7 -1.5,4.1 z" id="path3250"/>
    <linearGradient id="SVGID_4_" gradientUnits="userSpaceOnUse" x1="-8238.3281" y1="-818.15222" x2="-7698.647" y2="-818.15222" gradientTransform="matrix(0.4226,-0.9063,0.9063,0.4226,4226.9761,-6584.5938)">
      <stop offset="0.3233" style="stop-color:#9E2064" id="stop3253"/>
      <stop offset="0.6302" style="stop-color:#C92037" id="stop3255"/>
      <stop offset="0.7514" style="stop-color:#CD2335" id="stop3257"/>
      <stop offset="1" style="stop-color:#E97826" id="stop3259"/>
    </linearGradient>
    <path style="fill:url(#linearGradient3745)" d="m 115,348 c 3.5,-9 7.1,-18.1 10.7,-27.3 3.5,-8.8 7.1,-17.6 10.8,-26.5 3.7,-8.9 7.5,-17.8 11.3,-26.7 3.9,-9.1 7.9,-18.1 12,-27.1 4,-8.9 8.2,-17.8 12.3,-26.6 1.5,-3.2 3,-6.3 4.6,-9.5 2.6,-5.4 5.3,-10.8 8,-16.2 0.1,-0.3 0.3,-0.6 0.4,-0.9 L 165.4,148 c -0.3,0.5 -0.6,1.1 -1,1.6 -4.6,7.6 -9.3,15.3 -13.8,23.2 -4.6,8 -9.1,16.1 -13.5,24.4 -3.7,7 -7.3,14 -10.9,21.1 -0.7,1.4 -1.4,2.9 -2.1,4.3 -4.3,8.9 -8.3,17.6 -11.8,25.9 -4,9.4 -7.5,18.4 -10.6,26.9 -2,5.6 -3.9,11 -5.6,16.2 -1.4,4.4 -2.7,8.9 -4,13.3 -3,10.4 -5.5,20.8 -7.6,31.2 l 20,39.5 c 2.6,-7.1 5.4,-14.2 8.1,-21.5 0.8,-2 1.6,-4 2.4,-6.1 z" id="path3261"/>
    <linearGradient id="SVGID_5_" gradientUnits="userSpaceOnUse" x1="-8198.9678" y1="-810.85059" x2="-7915.3501" y2="-810.85059" gradientTransform="matrix(0.4226,-0.9063,0.9063,0.4226,4226.9761,-6584.5938)">
      <stop offset="0" style="stop-color:#282662" id="stop3264"/>
      <stop offset="0.0955" style="stop-color:#662E8D" id="stop3266"/>
      <stop offset="0.7882" style="stop-color:#9F2064" id="stop3268"/>
      <stop offset="0.9487" style="stop-color:#CD2032" id="stop3270"/>
    </linearGradient>
    <path style="fill:url(#linearGradient3747)" d="m 84.2,337.5 c -2.5,12.6 -4.3,25.2 -5.2,37.8 0,0.4 -0.1,0.9 -0.1,1.3 -6.2,-10 -23,-19.8 -22.9,-19.7 12,17.4 21.1,34.6 22.4,51.5 -6.4,1.3 -15.2,-0.6 -25.3,-4.3 10.6,9.7 18.5,12.4 21.6,13.1 -9.7,0.6 -19.8,7.3 -30,15 14.9,-6.1 27,-8.5 35.6,-6.5 -13.7,38.7 -27.4,81.5 -41.1,126.9 4.2,-1.2 6.7,-4.1 8.1,-7.9 2.4,-8.2 18.7,-62.2 44.1,-133.1 0.7,-2 1.5,-4 2.2,-6.1 0.2,-0.6 0.4,-1.1 0.6,-1.7 2.7,-7.4 5.5,-15 8.4,-22.8 0.7,-1.8 1.3,-3.5 2,-5.3 0,0 0,-0.1 0,-0.1 l -20,-39.5 c -0.2,0.5 -0.3,0.9 -0.4,1.4 z" id="path3272"/>
    <linearGradient id="SVGID_6_" gradientUnits="userSpaceOnUse" x1="-8238.3281" y1="-762.29712" x2="-7698.647" y2="-762.29712" gradientTransform="matrix(0.4226,-0.9063,0.9063,0.4226,4226.9761,-6584.5938)">
      <stop offset="0.3233" style="stop-color:#9E2064" id="stop3275"/>
      <stop offset="0.6302" style="stop-color:#C92037" id="stop3277"/>
      <stop offset="0.7514" style="stop-color:#CD2335" id="stop3279"/>
      <stop offset="1" style="stop-color:#E97826" id="stop3281"/>
    </linearGradient>
    <path style="fill:url(#linearGradient3749)" d="m 188.4,190.6 c -0.6,1.2 -1.1,2.3 -1.7,3.5 -1.7,3.6 -3.5,7.2 -5.2,10.9 -1.9,4 -3.8,8.1 -5.8,12.3 -1,2.1 -2,4.2 -3,6.4 -3,6.5 -6,13.2 -9.1,20.1 -3.8,8.5 -7.6,17.3 -11.5,26.5 -3.7,8.7 -7.5,17.8 -11.3,27.1 -3.6,8.9 -7.3,18 -11,27.5 -3.3,8.4 -6.6,17.1 -10,26 -0.2,0.4 -0.3,0.9 -0.5,1.3 -3.3,8.8 -6.7,17.9 -10.1,27.2 -0.1,0.2 -0.2,0.4 -0.2,0.6 l 16.1,-1.8 c -0.3,-0.1 -0.6,-0.1 -1,-0.2 19.3,-2.4 44.9,-16.8 61.4,-34.6 7.6,-8.2 14.5,-17.8 20.9,-29.1 4.8,-8.4 9.2,-17.7 13.5,-28.1 3.7,-9 7.3,-18.8 10.7,-29.4 -4.4,2.3 -9.5,4 -15.1,5.2 -1,0.2 -2,0.4 -3,0.6 -1,0.2 -2,0.3 -3.1,0.5 l 0,0 0,0 c 0,0 0,0 0,0 18,-6.9 29.3,-20.2 37.5,-36.6 -4.7,3.2 -12.4,7.4 -21.6,9.5 -1.2,0.3 -2.5,0.5 -3.8,0.7 -0.3,0 -0.6,0.1 -1,0.1 l 0,0 0,0 c 0,0 0,0 0,0 0,0 0,0 0,0 l 0,0 c 6.2,-2.6 11.5,-5.5 16.1,-9 1,-0.7 1.9,-1.5 2.8,-2.3 1.4,-1.2 2.7,-2.5 4,-3.8 0.8,-0.9 1.6,-1.7 2.4,-2.6 1.8,-2.1 3.5,-4.4 5,-6.9 0.5,-0.8 1,-1.5 1.4,-2.3 0.6,-1.2 1.2,-2.3 1.7,-3.4 2.5,-5 4.5,-9.5 6.1,-13.5 0.8,-2 1.5,-3.8 2.1,-5.5 0.2,-0.7 0.5,-1.3 0.7,-2 0.6,-1.9 1.2,-3.6 1.6,-5.1 0.6,-2.2 1,-4 1.2,-5.3 l 0,0 0,0 c -0.6,0.5 -1.3,1 -2.1,1.4 -5.4,3.2 -14.7,6.2 -22.2,7.6 l 14.8,-1.6 -14.8,1.6 c -0.1,0 -0.2,0 -0.3,0.1 -0.7,0.1 -1.5,0.2 -2.3,0.4 0.1,-0.1 0.3,-0.1 0.4,-0.2 l -50.6,5.5 c 0.1,0.4 0,0.6 -0.1,0.7 z" id="path3283"/>
    <linearGradient id="SVGID_7_" gradientUnits="userSpaceOnUse" x1="-8271.8057" y1="-765.07068" x2="-7732.125" y2="-765.07068" gradientTransform="matrix(0.4226,-0.9063,0.9063,0.4226,4226.9761,-6584.5938)">
      <stop offset="0.3233" style="stop-color:#9E2064" id="stop3286"/>
      <stop offset="0.6302" style="stop-color:#C92037" id="stop3288"/>
      <stop offset="0.7514" style="stop-color:#CD2335" id="stop3290"/>
      <stop offset="1" style="stop-color:#E97826" id="stop3292"/>
    </linearGradient>
    <path style="fill:url(#linearGradient3751)" d="m 245.4,88.4 c -4.5,6.9 -9.4,14.8 -14.7,23.6 -0.3,0.5 -0.6,0.9 -0.8,1.4 -4.6,7.7 -9.4,16.1 -14.5,25.4 -4.4,8 -9,16.5 -13.8,25.8 -4.2,8 -8.4,16.5 -12.9,25.5 l 50.6,-5.5 c 14.7,-6.8 21.3,-12.9 27.7,-21.8 1.7,-2.4 3.4,-5 5.1,-7.7 5.2,-8.1 10.3,-17 14.8,-25.9 4.4,-8.6 8.3,-17.1 11.2,-24.7 1.9,-4.9 3.4,-9.4 4.5,-13.4 0.9,-3.5 1.6,-6.8 2.2,-10 -19.6,3.3 -43.7,6.5 -59.4,7.3 z" id="path3294"/>
    <path style="fill:#be202e" d="m 212.7,262.8 c -1,0.2 -2,0.3 -3.1,0.5 l 0,0 c 1,-0.2 2,-0.4 3.1,-0.5 z" id="path3296"/>
    <path style="opacity:0.35;fill:#be202e" d="m 212.7,262.8 c -1,0.2 -2,0.3 -3.1,0.5 l 0,0 c 1,-0.2 2,-0.4 3.1,-0.5 z" id="path3298"/>
    <linearGradient id="SVGID_8_" gradientUnits="userSpaceOnUse" x1="-8238.3281" y1="-745.68481" x2="-7698.647" y2="-745.68481" gradientTransform="matrix(0.4226,-0.9063,0.9063,0.4226,4226.9761,-6584.5938)">
      <stop offset="0.3233" style="stop-color:#9E2064" id="stop3301"/>
      <stop offset="0.6302" style="stop-color:#C92037" id="stop3303"/>
      <stop offset="0.7514" style="stop-color:#CD2335" id="stop3305"/>
      <stop offset="1" style="stop-color:#E97826" id="stop3307"/>
    </linearGradient>
    <path style="fill:url(#linearGradient3753)" d="m 212.7,262.8 c -1,0.2 -2,0.3 -3.1,0.5 l 0,0 c 1,-0.2 2,-0.4 3.1,-0.5 z" id="path3309"/>
    <path style="fill:#be202e" d="m 220.7,236.9 c 0.3,0 0.6,-0.1 1,-0.1 -0.3,0 -0.6,0.1 -1,0.1 l 0,0 z" id="path3311"/>
    <path style="opacity:0.35;fill:#be202e" d="m 220.7x,236.9 c 0.3,0 0.6,-0.1 1,-0.1 -0.3,0 -0.6,0.1 -1,0.1 l 0,0 z" id="path3313"/>
    <linearGradient id="SVGID_9_" gradientUnits="userSpaceOnUse" x1="-8238.3281" y1="-747.58557" x2="-7698.647" y2="-747.58557" gradientTransform="matrix(0.4226,-0.9063,0.9063,0.4226,4226.9761,-6584.5938)">
      <stop offset="0.3233" style="stop-color:#9E2064" id="stop3316"/>
      <stop offset="0.6302" style="stop-color:#C92037" id="stop3318"/>
      <stop offset="0.7514" style="stop-color:#CD2335" id="stop3320"/>
      <stop offset="1" style="stop-color:#E97826" id="stop3322"/>
    </linearGradient>
    <path style="fill:url(#linearGradient3755)" d="m 220.7,236.9 c 0.3,0 0.6,-0.1 1,-0.1 -0.3,0 -0.6,0.1 -1,0.1 l 0,0 z" id="path3324"/>
    <path style="fill:#be202e" d="m 220.8,236.9 c 0,0 0,0 0,0 l 0,0 0,0 0,0 c 0,0 0,0 0,0 z" id="path3326"/>
    <path style="opacity:0.35;fill:#be202e" d="m 220.8,236.9 c 0,0 0,0 0,0 l 0,0 0,0 0,0 c 0,0 0,0 0,0 z" id="path3328"/>
    <linearGradient id="SVGID_10_" gradientUnits="userSpaceOnUse" x1="-7935.1431" y1="-747.9668" x2="-7815.856" y2="-747.9668" gradientTransform="matrix(0.4226,-0.9063,0.9063,0.4226,4226.9761,-6584.5938)">
      <stop offset="0.3233" style="stop-color:#9E2064" id="stop3331"/>
      <stop offset="0.6302" style="stop-color:#C92037" id="stop3333"/>
      <stop offset="0.7514" style="stop-color:#CD2335" id="stop3335"/>
      <stop offset="1" style="stop-color:#E97826" id="stop3337"/>
    </linearGradient>
    <path style="fill:url(#linearGradient3757)" d="m 220.8,236.9 c 0,0 0,0 0,0 l 0,0 0,0 0,0 c 0,0 0,0 0,0 z" id="path3339"/>
  </g>
  <path id="path3718" style="font-size:160.72227478px;font-style:normal;font-variant:normal;font-weight:bold;font-stretch:normal;line-height:125%;letter-spacing:0px;word-spacing:0px;fill:#d22128;fill-opacity:1;stroke:#d22128;stroke-width:3;stroke-linejoin:round;stroke-miterlimit:4;stroke-opacity:1;stroke-dasharray:none;font-family:Droid Sans;-inkscape-font-specification:Droid Sans Bold" d="M -228.708 385.923 C -232.109 385.923 -235.091 385.74 -237.655 385.374 C -240.218 385.06 -242.39 384.668 -244.168 384.197 L -244.168 363.95 C -242.233 364.368 -240.192 364.734 -238.047 365.048 C -235.954 365.362 -233.652 365.519 -231.141 365.519 C -228.734 365.519 -226.511 365.257 -224.471 364.734 C -222.378 364.211 -220.573 363.296 -219.056 361.988 C -217.486 360.732 -216.283 359.032 -215.446 356.887 C -214.556 354.741 -214.111 352.047 -214.111 348.803 L -214.111 237.444 L -189.783 237.444 L -189.783 348.019 C -189.783 354.611 -190.751 360.287 -192.687 365.048 C -194.571 369.809 -197.239 373.733 -200.692 376.82 C -204.092 379.959 -208.173 382.261 -212.934 383.726 C -217.695 385.191 -222.953 385.923 -228.708 385.923" transform="matrix(1, 0, 0, 1, 937.744140625, 507.8406066894531)"/>
  <path style="font-size: 160.722px; font-style: normal; font-variant: normal; font-weight: bold; font-stretch: normal; line-height: 125%; letter-spacing: 0px; word-spacing: 0px; stroke: rgb(0, 0, 0); stroke-width: 3; stroke-linejoin: round; stroke-miterlimit: 4; stroke-opacity: 1; stroke-dasharray: none; font-family: 'Droid Sans'; fill: rgb(255, 255, 255); paint-order: fill;" d="M -176.747 237.455 L -176.747 352.174 L -154.997 352.174 L -154.997 298.799 C -154.997 297.334 -155.038 295.693 -155.09 293.862 C -155.09 292.031 -155.142 290.131 -155.246 288.143 C -155.299 286.155 -155.361 284.152 -155.465 282.112 C -155.518 280.071 -155.611 278.079 -155.715 276.143 C -155.925 271.644 -156.183 266.988 -156.496 262.174 L -155.778 262.174 L -130.59 352.174 L -108.246 352.174 L -81.09 262.33 L -80.465 262.33 C -80.622 267.091 -80.787 271.654 -80.996 276.049 C -81.049 277.933 -81.142 279.874 -81.246 281.862 C -81.299 283.85 -81.351 285.801 -81.403 287.737 C -81.455 289.673 -81.507 291.51 -81.559 293.237 C -81.559 294.963 -81.559 296.501 -81.559 297.862 L -81.559 352.174 L -58.871 352.174 L -58.871 237.455 L -91.996 237.455 L -118.371 325.174 L -118.84 325.174 L -143.621 237.455 L -176.746 237.455 L -176.747 237.455 Z M 51.035 245.768 L 44.128 264.268 L 30.972 272.299 L 30.972 282.424 L 42.41 282.424 L 42.41 324.705 C 42.41 330.356 43.081 335.063 44.441 338.83 C 45.854 342.545 47.784 345.518 50.191 347.768 C 52.598 349.965 55.457 351.535 58.753 352.424 C 62.049 353.314 65.59 353.737 69.41 353.737 C 73.334 353.737 76.957 353.365 80.253 352.58 C 83.602 351.848 86.379 350.888 88.628 349.737 L 88.628 331.924 C 86.431 332.709 84.273 333.37 82.128 333.893 C 80.036 334.416 77.795 334.674 75.441 334.674 C 72.72 334.674 70.521 333.859 68.847 332.237 C 67.173 330.615 66.347 328.106 66.347 324.705 L 66.347 282.424 L 87.691 282.424 L 87.691 264.455 L 66.347 264.455 L 66.347 245.768 L 51.035 245.768 Z M -10.403 262.799 C -16.367 262.799 -21.797 263.77 -26.715 265.705 C -31.581 267.641 -35.772 270.521 -39.278 274.393 C -42.731 278.212 -45.436 283.013 -47.372 288.768 C -49.307 294.523 -50.278 301.233 -50.278 308.924 C -50.278 316.51 -49.214 323.149 -47.122 328.799 C -44.976 334.397 -42.003 339.053 -38.184 342.768 C -34.365 346.43 -29.812 349.156 -24.528 350.987 C -19.244 352.818 -13.462 353.737 -7.184 353.737 C -3.94 353.737 -0.967 353.623 1.753 353.362 C 4.474 353.152 7.024 352.791 9.378 352.268 C 11.733 351.745 13.942 351.094 16.035 350.362 C 18.18 349.577 20.317 348.648 22.41 347.549 L 22.41 329.018 C 20.108 330.169 17.857 331.191 15.66 332.08 C 13.462 332.918 11.222 333.63 8.972 334.205 C 6.722 334.781 4.41 335.235 2.003 335.549 C -0.351 335.811 -2.86 335.924 -5.528 335.924 C -8.719 335.924 -11.579 335.449 -14.09 334.455 C -16.549 333.461 -18.686 332.037 -20.465 330.205 C -22.192 328.322 -23.534 326.03 -24.528 323.362 C -25.47 320.641 -25.986 317.616 -26.09 314.268 L 27.41 314.268 L 27.41 302.643 C 27.41 296.26 26.532 290.623 24.753 285.705 C 23.027 280.735 20.518 276.544 17.222 273.143 C 13.978 269.742 9.993 267.182 5.285 265.455 C 0.628 263.677 -4.595 262.799 -10.403 262.799 L -10.403 262.799 Z M 133.691 262.799 C 127.727 262.799 122.296 263.77 117.378 265.705 C 112.513 267.641 108.321 270.521 104.816 274.393 C 101.363 278.212 98.658 283.013 96.722 288.768 C 94.786 294.523 93.816 301.233 93.816 308.924 C 93.816 316.51 94.879 323.149 96.972 328.799 C 99.117 334.397 102.09 339.053 105.91 342.768 C 109.729 346.43 114.282 349.156 119.566 350.987 C 124.85 352.818 130.631 353.737 136.91 353.737 C 140.153 353.737 143.127 353.623 145.847 353.362 C 148.568 353.152 151.118 352.791 153.472 352.268 C 155.826 351.745 158.036 351.094 160.128 350.362 C 162.273 349.577 164.411 348.648 166.503 347.549 L 166.503 329.018 C 164.201 330.169 161.951 331.191 159.753 332.08 C 157.556 332.918 155.316 333.63 153.066 334.205 C 150.816 334.781 148.504 335.235 146.097 335.549 C 143.743 335.811 141.234 335.924 138.566 335.924 C 135.374 335.924 132.515 335.449 130.003 334.455 C 127.544 333.461 125.439 332.037 123.66 330.205 C 121.933 328.322 120.56 326.03 119.566 323.362 C 118.624 320.641 118.108 317.616 118.003 314.268 L 171.503 314.268 L 171.503 302.643 C 171.503 296.26 170.626 290.623 168.847 285.705 C 167.121 280.735 164.612 276.544 161.316 273.143 C 158.072 269.742 154.087 267.182 149.378 265.455 C 144.722 263.677 139.498 262.799 133.691 262.799 L 133.691 262.799 Z M 223.66 262.799 C 220.73 262.799 218.118 263.161 215.816 263.893 C 213.566 264.573 211.522 265.554 209.691 266.862 C 207.912 268.117 206.312 269.687 204.847 271.518 C 203.382 273.349 202.009 275.362 200.753 277.612 L 199.566 277.612 L 196.035 264.455 L 177.91 264.455 L 177.91 352.174 L 201.847 352.174 L 201.847 307.518 C 201.847 303.385 202.353 299.906 203.347 297.08 C 204.394 294.203 205.829 291.901 207.66 290.174 C 209.543 288.395 211.784 287.115 214.347 286.33 C 216.963 285.546 219.792 285.143 222.878 285.143 C 223.402 285.143 224.062 285.184 224.847 285.237 C 225.632 285.237 226.406 285.288 227.191 285.393 C 228.028 285.445 228.833 285.538 229.566 285.643 C 230.298 285.748 230.866 285.851 231.285 285.955 L 231.285 263.487 C 230.971 263.382 230.506 263.32 229.878 263.268 C 229.303 263.163 228.642 263.07 227.91 263.018 C 227.23 262.913 226.507 262.862 225.722 262.862 C 224.99 262.809 224.287 262.799 223.66 262.799 L 223.66 262.799 Z M -10.247 279.83 C -7.735 279.83 -5.536 280.295 -3.653 281.237 C -1.769 282.178 -0.19 283.469 1.066 285.143 C 2.322 286.765 3.251 288.706 3.878 290.955 C 4.506 293.205 4.857 295.662 4.91 298.33 L -25.622 298.33 C -25.203 291.948 -23.613 287.281 -20.84 284.299 C -18.015 281.317 -14.484 279.83 -10.247 279.83 Z M 133.847 279.83 C 136.358 279.83 138.557 280.295 140.441 281.237 C 142.324 282.178 143.904 283.469 145.16 285.143 C 146.415 286.765 147.344 288.706 147.972 290.955 C 148.6 293.205 148.951 295.662 149.003 298.33 L 118.472 298.33 C 118.891 291.948 120.481 287.281 123.253 284.299 C 126.079 281.317 129.609 279.83 133.847 279.83 Z" id="path3720" transform="matrix(1, 0, 0, 1, 937.744140625, 507.8406066894531)"/>
</svg>
