<?xml version="1.0" encoding="utf-8"?>
<svg viewBox="514.5989 161.0916 62.7949 60.372" width="62.7949" height="60.372" xmlns="http://www.w3.org/2000/svg" xmlns:xlink="http://www.w3.org/1999/xlink">
    <defs>
        <linearGradient id="linear-gradient" x1="91.64" y1="155.09" x2="52.31" y2="132.48" gradientUnits="userSpaceOnUse">
            <stop offset="0" stop-color="#0050d3"/>
            <stop offset="0.94" stop-color="#007ffc"/>
            <stop offset="1" stop-color="#0082ff"/>
        </linearGradient>
        <linearGradient id="linear-gradient-2" x1="779.67" y1="1608.58" x2="740.34" y2="1585.98" gradientTransform="translate(814.7 1695.66) rotate(180)" xlink:href="#linear-gradient"/>
    </defs>
    <g id="Logo_Lock-up" data-name="Logo Lock-up" transform="matrix(1, 0, 0, 1, 482.6377258300782, 70.17536926269533)">
        <path class="cls-2" d="M34.19,137c-.65,1.06-1.38,2.29-1.95,3.27a2,2,0,0,0,.67,2.72l13,8a2,2,0,0,0,2.77-.68c.51-.87,1.18-2,1.91-3.21,5.15-8.5,10.34-7.46,19.67-3l12.89,6.13a2,2,0,0,0,2.69-1l6.19-14a2,2,0,0,0-1-2.62c-2.72-1.28-8.13-3.84-13-6.18C60.47,117.89,45.58,118.45,34.19,137Z" style="fill: url('#linear-gradient');"/>
        <path class="cls-3" d="M92.48,105.2c.65-1.06,1.38-2.3,2-3.27a2,2,0,0,0-.68-2.72l-13-8a2,2,0,0,0-2.76.68c-.52.87-1.19,2-1.92,3.21-5.15,8.5-10.33,7.46-19.67,3L43.52,92a2,2,0,0,0-2.68,1l-6.19,14a2,2,0,0,0,1,2.62c2.72,1.28,8.14,3.83,13,6.18C66.2,124.27,81.09,123.71,92.48,105.2Z" style="fill: url('#linear-gradient-2');"/>
    </g>
</svg>
