<?xml version="1.0" encoding="utf-8"?>
<svg viewBox="583.0433 46.4576 71.8 71.7" width="71.8" height="71.7" xmlns="http://www.w3.org/2000/svg">
	<g transform="matrix(1, 0, 0, 1, 555.9432983398438, -36.74237060546875)">
		<g id="g-3">
			<path class="st1" d="M95.9,83.2H61.3c0,8.6,7,15.6,15.6,15.6c0,0,0,0,0,0h6.4v6.1c0,8.6,7,15.6,15.6,15.6l0,0V86.2&#10;&#9;&#9;&#9;C98.9,84.5,97.5,83.2,95.9,83.2L95.9,83.2z" style="fill: rgb(0, 130, 255);"/>
			<linearGradient id="gradient-3" gradientUnits="userSpaceOnUse" x1="81.0326" y1="101.5272" x2="66.3226" y2="86.3572" gradientTransform="matrix(1 0 0 -1 0 202)">
				<stop offset="0.18" style="stop-color:#0050D3"/>
				<stop offset="1" style="stop-color:#0082FF"/>
			</linearGradient>
			<path class="st2" d="M78.8,100.4H44.2c0,8.6,7,15.6,15.6,15.6h6.4v6.2c0,8.6,7,15.6,15.6,15.6v-34.3&#10;&#9;&#9;&#9;C81.8,101.8,80.4,100.4,78.8,100.4L78.8,100.4z" style="fill: url('#gradient-3');"/>
			<linearGradient id="gradient-4" gradientUnits="userSpaceOnUse" x1="64.8974" y1="84.2026" x2="47.8874" y2="67.6526" gradientTransform="matrix(1 0 0 -1 0 202)">
				<stop offset="0.18" style="stop-color:#0050D3"/>
				<stop offset="1" style="stop-color:#0082FF"/>
			</linearGradient>
			<path style="fill: url('#gradient-4');" d="M61.7,117.6H27.1c0,8.6,7,15.6,15.6,15.6&#10;&#9;&#9;&#9;l0,0H49v6.1c0,8.6,7,15.6,15.6,15.6h0v-34.4C64.7,119,63.3,117.6,61.7,117.6z"/>
		</g>
	</g>
</svg>
