<svg fill="skyblue" id="Layer_1" enable-background="new 0 0 512 512" viewBox="0 0 512 512" xmlns="http://www.w3.org/2000/svg"><g><g><g><path d="m437.333 362.666c-6.399 0-10.667 4.267-10.667 10.667v64c0 17.067-14.934 32-32 32h-341.332c-17.067 0-32-14.934-32-32v-309.333h405.334v74.667c0 6.399 4.267 10.667 10.667 10.667 6.399 0 10.667-4.267 10.667-10.667v-128c0-29.866-23.467-53.334-53.334-53.334h-341.334c-29.867 0-53.334 23.467-53.334 53.333v362.667c0 29.866 23.467 53.334 53.334 53.334h341.334c29.866 0 53.334-23.467 53.334-53.334v-64c-.002-6.399-4.268-10.667-10.669-10.667zm-298.666-298.666c6.399 0 10.667 4.267 10.667 10.667s-4.267 10.667-10.667 10.667-10.667-4.269-10.667-10.668 4.268-10.666 10.667-10.666zm-42.667 0c6.399 0 10.667 4.267 10.667 10.667s-4.268 10.666-10.667 10.666-10.667-4.267-10.667-10.667 4.267-10.666 10.667-10.666zm-42.666 0c6.399 0 10.666 4.267 10.666 10.666s-4.267 10.667-10.667 10.667-10.667-4.267-10.667-10.667 4.267-10.666 10.668-10.666z"/><path d="m501.333 320h-32v-74.667c0-6.399-4.267-10.667-10.667-10.667-6.399 0-10.667 4.267-10.667 10.667v85.333c0 6.399 4.267 10.667 10.667 10.667h42.667c6.399 0 10.667-4.267 10.667-10.667s-4.266-10.666-10.667-10.666z"/><path d="m154.5 381.625c4.438 1.375 9.89 2.823 14.034-4.023l42.667-85.333c2.133-4.267.629-11.405-4.267-14.934-3.87-2.789-11.809-1.022-14.934 4.267l-12.8 23.467-12.801-23.467c-2.133-4.267-8.701-6.848-14.934-4.267-4.408 1.825-7.028 8.665-4.267 14.934l19.2 38.4-19.2 38.4c-2.354 4.524.858 10.559 7.302 12.556z"/><path d="m117.334 341.333c6.399 0 10.667-4.267 10.667-10.667v-85.333c0-4.267-2.133-8.533-6.399-10.667-4.267-2.133-8.914-.355-12.8 4.267l-23.467 32-23.467-32c-3.055-4.372-8.648-5.247-12.801-4.267-4.643 1.096-6.399 6.399-6.399 10.667v85.333c0 6.399 4.267 10.667 10.667 10.667s10.665-4.267 10.665-10.666v-53.334l12.801 17.067c4.267 6.399 12.801 6.399 17.067 0l12.8-17.067v53.334c-.001 6.4 4.265 10.666 10.666 10.666z"/><path d="m426.667 266.667c0-17.067-14.934-32-32-32h-21.333c-17.067 0-32 14.934-32 32v42.667c0 17.067 14.934 32 32 32h21.333c4.267 0 8.533-2.133 12.801-4.267 2.133 2.133 4.767 4.267 9.033 4.267 2.133 0 5.9-2.134 8.034-4.267 4.267-4.267 4.267-10.667 0-14.934 2.133-4.267 2.267-8.533 2.267-12.8zm-38.4 36.266c-4.267 4.267-4.267 10.667 0 14.934l2.133 2.133h-17.067c-6.399 0-10.667-4.267-10.667-10.667v-42.667c0-6.399 4.267-10.667 10.667-10.667h21.333c6.399 0 10.667 4.267 10.667 10.667v38.399l-2.132-2.132c-4.267-4.267-10.667-4.267-14.934 0z"/><path d="m279.469 253.867c12.8 0 19.012 7.085 21.333 10.666 5.323 8.215 8.771 9.844 14.448 7.715 7-2.625 7.375-6 6.885-9.848-2.133-17.067-19.2-29.866-42.667-29.866s-42.667 14.934-42.667 32 12.85 27.199 38.449 31.465l4.217.535c17.067 2.133 21.283 6.09 21.221 11.465-.079 6.745-10.555 12.001-23.354 12.001-12.801 0-18.959-6.876-21.333-10.667-3.908-6.238-6.399-10.667-10.667-10.667-6.399 0-11.834 5.582-10.666 10.667 3.582 16.291 19.2 29.866 42.667 29.866s42.667-14.934 42.667-32c0-17.067-12.526-27.435-38.127-31.701l-2.406-.298c-19.2-2.133-21.344-7.952-21.333-10.667.017-4.267 8.533-10.666 21.333-10.666z"/></g></g></g><g/><g/><g/><g/><g/><g/><g/><g/><g/><g/><g/><g/><g/><g/><g/></svg>
