<?xml version="1.0" encoding="utf-8"?>
<!-- Generator: Adobe Illustrator 25.0.0, SVG Export Plug-In . SVG Version: 6.00 Build 0)  -->
<svg version="1.1" id="Layer_1" xmlns="http://www.w3.org/2000/svg" xmlns:xlink="http://www.w3.org/1999/xlink" x="0px" y="0px"
	 viewBox="0 0 45.4 45.4" style="enable-background:new 0 0 45.4 45.4;" xml:space="preserve">
<style type="text/css">
	.st0{fill:#6DB344;}
	.st1{fill:#FFFFFF;}
</style>
<g>
	<path class="st0" d="M39.2,4.7C38.6,6,37.9,7.3,37,8.5C29.3,0.4,16.5,0.2,8.5,8S0.2,28.5,8,36.5c0.3,0.3,0.5,0.5,0.8,0.8L9.5,38
		c8.5,7.2,21.3,6.1,28.4-2.4c2.8-3.3,4.4-7.3,4.7-11.6C43.3,18.9,41.7,12.4,39.2,4.7z M11.7,37.5c-0.6,0.8-1.7,0.8-2.4,0.3
		c-0.8-0.6-0.8-1.7-0.3-2.4c0.6-0.8,1.7-0.8,2.4-0.3C12.2,35.7,12.3,36.8,11.7,37.5z M39.1,31.5c-5,6.6-15.6,4.4-22.4,4.7
		c0,0-1.2,0.1-2.4,0.3c0,0,0.5-0.2,1-0.4c4.8-1.7,7-2,10-3.5c5.5-2.8,10.9-8.9,12-15.3c-2.1,6.1-8.4,11.3-14.2,13.5
		c-4,1.5-11.1,2.9-11.1,2.9l-0.3-0.2c-4.8-2.4-5-12.9,3.8-16.3c3.9-1.5,7.5-0.7,11.8-1.7c4.5-1,9.6-4.4,11.7-8.8
		C41.3,13.8,44.1,24.7,39.1,31.5z"/>
	<path class="st0" d="M38,35.6c2.8-3.3,4.4-7.3,4.7-11.6"/>
	<path class="st1" d="M39.1,31.5c-5,6.6-15.6,4.4-22.4,4.7c0,0-1.2,0.1-2.4,0.3c0,0,0.5-0.2,1-0.4c4.8-1.7,7-2,10-3.5
		c5.5-2.8,10.9-8.9,12-15.3c-2.1,6.1-8.4,11.3-14.2,13.5c-4,1.5-11.1,2.9-11.1,2.9l-0.3-0.2c-4.8-2.4-5-12.9,3.8-16.3
		c3.9-1.5,7.5-0.7,11.8-1.7c4.5-1,9.6-4.4,11.7-8.8C41.3,13.8,44.1,24.7,39.1,31.5z"/>
	<path class="st1" d="M11.7,37.5c-0.6,0.8-1.7,0.8-2.4,0.3c-0.8-0.6-0.8-1.7-0.3-2.4c0.6-0.8,1.7-0.8,2.4-0.3
		C12.2,35.7,12.3,36.8,11.7,37.5z"/>
</g>
</svg>
