<?xml version="1.0" encoding="utf-8"?>
<!-- Generator: Adobe Illustrator 23.0.0, SVG Export Plug-In . SVG Version: 6.00 Build 0)  -->
<svg version="1.1" id="Layer_1" xmlns="http://www.w3.org/2000/svg" xmlns:xlink="http://www.w3.org/1999/xlink" x="0px" y="0px"
	 viewBox="0 0 1000 1000" style="enable-background:new 0 0 1000 1000;" xml:space="preserve">
<style type="text/css">
	.st0{fill:#FE9201;}
	.st1{fill:#FE8401;}
</style>
<g>
	<path class="st0" d="M516.7,923.73c-1.34-2.39-0.81-4.58-0.81-6.67c-0.03-278.64-0.03-557.28-0.03-835.92
		c0-6.01-0.01-5.99,5.17-3.04c96.52,55.12,193.04,110.23,289.56,165.34c21.39,12.21,42.73,24.5,64.17,36.61
		c3,1.69,4.07,3.59,4.06,7.06c-0.06,59.16,0.02,118.32,0.05,177.48c0,1.61,0.81,3.77-0.59,4.7c-1.55,1.02-2.95-0.88-4.33-1.68
		c-47.14-27.17-94.29-54.34-141.42-81.53c-22.05-12.73-44.07-25.52-66.14-38.21c-1.36-0.78-2.73-2.52-4.45-1.66
		c-1.85,0.93-0.92,3-0.93,4.55c-0.05,27.5,0.03,55-0.11,82.49c-0.02,3.79,1.1,6.08,4.46,7.98c33.01,18.69,65.92,37.57,98.94,56.23
		c3.92,2.22,5.53,4.69,5.52,9.4c-0.07,47.99,0.14,95.97,0.31,143.96c0.01,3.16,0.33,6.31,0.49,9.47c0.18,3.49-0.8,4.06-4,2.18
		c-17.95-10.52-36.02-20.82-54.04-31.23c-15.42-8.9-30.81-17.86-46.25-26.74c-5.06-2.91-5.35-2.71-5.35,3.15
		c0,75.33-0.04,150.65,0.1,225.98c0.01,4.41-1.3,6.84-5.15,9.06c-44.86,25.81-89.61,51.81-134.38,77.78
		C519.99,921.37,518.54,922.49,516.7,923.73z"/>
	<path class="st1" d="M484,499.89c0,139.16,0,278.31-0.02,417.47c0,1.97,0.86,4.7-0.62,5.72c-1.86,1.29-3.24-1.5-4.83-2.41
		c-33.89-19.52-67.72-39.13-101.55-58.75c-11.66-6.76-23.26-13.63-34.97-20.3c-2.37-1.35-3.32-3.01-3.16-5.63
		c0.13-2.16,0.03-4.33,0.03-6.5c0-159.32,0-318.64-0.03-477.97c0-1.76,0.93-4.06-0.71-5.18c-2.05-1.4-3.67,0.87-5.27,1.8
		c-69.34,40-138.66,80.04-207.92,120.16c-3.54,2.05-4.05,1.09-4.04-2.44c0.11-59.99,0.18-119.99,0.1-179.98
		c0-3.43,1.83-4.61,4.17-5.94c33.66-19.23,67.31-38.51,100.98-57.73c52.06-29.71,104.13-59.37,156.2-89.06
		c32.4-18.47,64.84-36.88,97.15-55.51c4.2-2.42,4.55-1.16,4.54,2.77c-0.08,41.16-0.05,82.33-0.05,123.49
		C484,302.57,484,401.23,484,499.89z"/>
</g>
</svg>
